<svg height="512pt" viewBox="0 0 512.00076 512" width="512pt" xmlns="http://www.w3.org/2000/svg"><path d="m502.003906 256c0 135.863281-110.140625 246.003906-246.003906 246.003906s-246-110.140625-246-246.003906c0-135.859375 110.136719-246 246-246s246.003906 110.140625 246.003906 246zm0 0" fill="#ff6977"/><path d="m314.902344 150.0625c-23.199219 0-44.121094 10.617188-58.902344 27.632812-14.777344-17.015624-35.699219-27.632812-58.902344-27.632812-44.78125 0-81.085937 39.546875-81.085937 88.332031 0 68.335938 139.988281 168.882813 139.988281 168.882813s139.988281-100.546875 139.988281-168.882813c0-48.785156-36.300781-88.332031-81.085937-88.332031zm0 0" fill="#fff"/><path d="m256 417.277344c-2.042969 0-4.089844-.628906-5.832031-1.878906-1.453125-1.042969-35.984375-25.945313-71.09375-59.730469-48.480469-46.652344-73.0625-86.109375-73.0625-117.273438 0-54.21875 40.859375-98.332031 91.085937-98.332031 21.589844 0 42.546875 8.394531 58.902344 23.332031 16.355469-14.9375 37.3125-23.332031 58.902344-23.332031 50.226562 0 91.085937 44.113281 91.085937 98.332031 0 31.164063-24.582031 70.621094-73.0625 117.273438-35.109375 33.785156-69.640625 58.6875-71.09375 59.730469-1.738281 1.25-3.785156 1.878906-5.832031 1.878906zm-58.902344-257.214844c-39.195312 0-71.085937 35.140625-71.085937 78.332031 0 49.320313 88.863281 125.832031 129.988281 156.484375 41.125-30.652344 129.988281-107.164062 129.988281-156.484375 0-43.191406-31.886719-78.332031-71.085937-78.332031-19.5625 0-37.800782 8.589844-51.351563 24.1875-1.898437 2.1875-4.652343 3.441406-7.550781 3.441406s-5.648438-1.253906-7.550781-3.441406c-13.546875-15.597656-31.785157-24.1875-51.351563-24.1875zm0 0"/><path d="m255.9375 512c-6.527344 0-13.070312-.25-19.621094-.75-60.835937-4.664062-118.132812-31.027344-161.335937-74.230469-48.351563-48.351562-74.980469-112.636719-74.980469-181.019531 0-68.378906 26.628906-132.667969 74.980469-181.019531 48.351562-48.351563 112.640625-74.980469 181.019531-74.980469 68.382812 0 132.667969 26.628906 181.023438 74.980469 43.199218 43.203125 69.5625 100.5 74.226562 161.335937 4.613281 60.175782-12.144531 120.160156-47.183594 168.898438-3.222656 4.484375-9.472656 5.507812-13.957031 2.28125-4.484375-3.222656-5.507813-9.472656-2.28125-13.957032 67.726563-94.207031 57.234375-222.234374-24.949219-304.417968-44.574218-44.574219-103.839844-69.121094-166.878906-69.121094s-122.300781 24.546875-166.875 69.125c-44.578125 44.574219-69.125 103.839844-69.125 166.875 0 63.039062 24.546875 122.304688 69.125 166.878906 82.179688 82.183594 210.207031 92.675782 304.414062 24.949219 4.484376-3.226563 10.734376-2.203125 13.957032 2.28125 3.226562 4.484375 2.203125 10.730469-2.28125 13.957031-43.4375 31.226563-95.804688 47.933594-149.277344 47.933594zm0 0"/><path d="m429.953125 439.953125c-2.632813 0-5.210937-1.070313-7.070313-2.929687-1.859374-1.859376-2.929687-4.441407-2.929687-7.070313 0-2.640625 1.066406-5.210937 2.929687-7.070313 1.859376-1.859374 4.429688-2.929687 7.070313-2.929687 2.628906 0 5.207031 1.070313 7.066406 2.929687 1.859375 1.859376 2.933594 4.4375 2.933594 7.070313 0 2.628906-1.070313 5.199219-2.933594 7.070313-1.867187 1.859374-4.4375 2.929687-7.066406 2.929687zm0 0"/></svg>